<?xml version="1.0" standalone="no"?>
<!DOCTYPE svg PUBLIC "-//W3C//DTD SVG 20010904//EN"
 "http://www.w3.org/TR/2001/REC-SVG-20010904/DTD/svg10.dtd">
<svg version="1.0" xmlns="http://www.w3.org/2000/svg"
 width="1263.000000pt" height="2940.000000pt" viewBox="0 0 1263.000000 2940.000000"
 preserveAspectRatio="xMidYMid meet">

<g transform="translate(0.000000,2940.000000) scale(0.100000,-0.100000)"
fill="#000000" stroke="none">
<path d="M5260 29299 c-378 -35 -943 -184 -1403 -370 -766 -311 -1420 -742
-1997 -1319 -668 -668 -1150 -1451 -1450 -2360 -145 -439 -222 -823 -276
-1385 -25 -250 -25 -782 -1 -1025 126 -1265 627 -2419 1464 -3377 155 -176
469 -486 643 -633 577 -487 1215 -844 1955 -1096 94 -31 171 -58 173 -59 1 -1
9 -87 17 -191 84 -1053 340 -2428 520 -2783 l32 -65 16 59 c9 33 61 150 117
260 94 189 100 204 102 266 1 62 -1 68 -30 95 -30 28 -31 31 -24 83 l7 53 84
-64 84 -65 327 82 c276 69 334 87 373 114 26 18 47 33 47 35 0 17 -34 77 -47
84 -10 6 -84 27 -165 47 l-147 38 -12 34 c-6 19 -9 36 -7 38 1 2 36 -7 77 -20
93 -30 217 -59 345 -81 l99 -18 -47 -13 c-25 -8 -46 -16 -46 -19 0 -3 8 -19
17 -37 16 -31 19 -72 7 -109 -3 -10 -37 -40 -77 -67 -71 -50 -72 -50 -402
-132 l-330 -82 -132 -241 c-86 -159 -127 -243 -120 -247 7 -4 345 -104 752
-223 l739 -216 309 137 c278 124 331 152 314 169 -3 3 -80 32 -172 64 -92 33
-173 67 -181 77 -7 10 -17 43 -23 73 -6 30 -20 93 -31 140 -11 47 -20 110 -20
140 -1 71 -23 173 -109 510 -82 315 -144 612 -195 920 -39 238 -116 816 -116
873 l0 36 53 5 c28 2 120 10 202 16 186 13 515 60 712 100 1763 363 3295 1534
4129 3155 173 336 270 570 410 991 235 706 289 983 314 1598 14 349 -3 718
-46 1016 -63 435 -267 1081 -496 1576 -392 844 -954 1446 -1612 1725 -296 125
-633 210 -950 240 -157 14 -508 7 -652 -15 -333 -50 -595 -132 -899 -281 -978
-482 -1726 -1456 -2265 -2950 -400 -1109 -681 -2457 -810 -3886 -11 -124 -31
-392 -45 -594 -13 -202 -27 -370 -29 -373 -13 -12 -381 196 -541 305 -760 520
-1326 1296 -1594 2186 -77 255 -116 473 -140 787 -41 525 -12 927 100 1362
230 899 745 1666 1506 2240 98 74 308 218 318 218 3 0 5 -51 5 -114 0 -63 6
-147 14 -188 43 -223 173 -441 343 -579 182 -146 365 -210 599 -210 375 0 587
138 1055 691 470 554 737 1046 804 1480 18 117 14 337 -8 435 -51 227 -157
415 -328 585 -286 283 -681 397 -1209 349z m3791 -3382 c58 -19 218 -99 289
-145 123 -78 294 -273 407 -462 189 -318 329 -690 392 -1047 120 -673 73
-1314 -144 -1984 -456 -1403 -1553 -2459 -2908 -2799 -229 -58 -678 -130 -807
-130 -19 0 -20 6 -20 104 0 138 34 718 55 931 3 28 14 151 25 275 86 966 243
1839 475 2645 296 1029 677 1789 1115 2225 69 69 166 154 215 189 112 79 329
189 409 207 85 19 432 13 497 -9z"/>
<path d="M10747 19544 c-26 -31 -47 -59 -47 -63 0 -4 13 -45 28 -91 l28 -85
76 -37 c42 -20 81 -45 86 -55 6 -10 45 -189 87 -398 l78 -381 -84 -194 -84
-195 -85 -27 c-47 -15 -125 -39 -173 -53 l-89 -26 7 -60 c7 -59 21 -81 471
-775 l464 -714 72 -293 73 -292 95 -74 c52 -40 96 -69 98 -63 4 12 -125 528
-139 554 -5 10 -215 334 -465 719 l-456 702 -1 60 -2 61 163 47 c90 26 168 51
172 55 20 21 161 363 162 394 3 45 -140 748 -157 776 -8 12 -45 34 -84 50 -58
24 -73 34 -81 59 -6 17 -43 122 -82 235 -39 113 -74 209 -78 213 -4 4 -28 -18
-53 -49z"/>
<path d="M4160 17351 c58 -55 119 -110 135 -122 33 -23 -27 34 -157 150 -69
61 -66 57 22 -28z"/>
<path d="M2040 16790 c0 -5 5 -10 10 -10 6 0 10 5 10 10 0 6 -4 10 -10 10 -5
0 -10 -4 -10 -10z"/>
<path d="M710 16292 c0 -31 4 -62 8 -68 4 -6 174 -48 379 -93 l372 -83 306
-128 306 -128 -3 46 -3 46 -410 171 -410 172 -260 57 c-143 31 -266 59 -272
61 -10 3 -13 -11 -13 -53z"/>
<path d="M11870 15406 l0 -213 -172 -111 -173 -110 -53 -374 c-29 -205 -53
-380 -52 -388 0 -9 22 -38 50 -65 47 -47 49 -50 43 -92 -5 -36 -27 -72 -120
-196 l-113 -152 5 -95 c3 -52 8 -129 11 -171 10 -129 30 -114 -373 -268 l-348
-132 -108 -111 c-84 -88 -105 -114 -95 -123 249 -221 348 -319 354 -350 3 -20
-11 -165 -35 -346 -22 -172 -40 -313 -38 -315 1 -1 52 -5 114 -9 l112 -7 5 33
c23 132 56 439 51 465 -4 25 -38 62 -159 172 -84 77 -165 151 -181 164 l-27
24 105 110 106 110 351 135 c334 127 352 136 365 165 10 25 11 67 4 198 l-10
167 100 138 c55 76 107 144 116 151 10 8 15 30 15 63 0 48 -3 55 -49 102 l-48
50 56 384 56 384 172 111 173 111 0 221 0 221 -105 81 -105 82 0 -214z"/>
<path d="M4942 14580 c-18 -27 -37 -50 -41 -50 -5 0 25 -134 66 -297 l73 -297
58 -60 c192 -205 400 -416 410 -416 6 0 118 29 249 64 146 40 434 132 743 239
l505 174 74 247 c41 135 72 249 68 252 -3 3 -139 -53 -303 -125 l-297 -132
-772 226 c-425 124 -778 225 -786 225 -8 0 -29 -22 -47 -50z"/>
<path d="M2535 13650 c-539 -13 -816 -28 -833 -45 -10 -9 33 -140 53 -163 l21
-25 205 21 c373 39 1641 54 2143 26 139 -8 137 -13 31 97 l-70 72 -160 8
c-254 13 -1019 18 -1390 9z"/>
<path d="M4680 12511 c0 -10 161 -134 167 -128 2 3 -34 34 -81 71 -48 36 -86
62 -86 57z"/>
<path d="M1065 11723 c-142 -7 -260 -15 -261 -16 -1 -1 -32 -297 -69 -657 -36
-360 -70 -658 -73 -661 -4 -4 -69 -10 -144 -13 l-138 -7 0 661 0 661 -53 -5
c-28 -3 -114 -8 -189 -12 l-138 -6 0 -829 0 -829 33 0 c70 1 969 49 973 52 2
2 9 68 15 145 14 163 5 153 130 153 l76 0 9 -140 c5 -76 12 -141 15 -144 7 -7
361 12 368 20 5 5 -144 1560 -155 1617 -5 26 -7 27 -72 26 -37 -1 -184 -8
-327 -16z m85 -365 c0 -13 11 -165 25 -338 13 -173 22 -317 19 -319 -3 -3 -34
-7 -69 -9 -53 -4 -65 -2 -65 11 0 8 11 156 25 328 14 173 25 322 25 332 0 10
8 17 20 17 14 0 20 -7 20 -22z"/>
<path d="M11240 11374 c-50 -142 -79 -210 -95 -222 -12 -9 -77 -44 -144 -77
-66 -32 -121 -62 -121 -66 0 -4 95 -229 212 -501 l211 -493 174 -553 c99 -316
173 -569 172 -590 0 -20 -26 -111 -57 -202 l-58 -165 -80 -3 -79 -3 -265 140
c-146 77 -266 138 -268 136 -6 -6 25 -70 39 -81 8 -6 170 -93 361 -193 l346
-182 77 3 78 3 58 170 c32 94 59 184 59 200 0 17 -78 280 -174 585 l-174 555
-211 494 c-116 271 -211 497 -211 500 0 4 59 36 131 71 72 36 136 72 144 80 7
8 52 124 100 258 85 236 87 244 73 279 -16 42 -28 47 -144 56 l-81 6 -73 -205z"/>
<path d="M6960 11266 l-485 -163 -129 -116 c-91 -83 -137 -117 -154 -117 -14
0 -96 18 -183 41 -87 22 -165 37 -171 33 -7 -5 -74 -53 -148 -107 l-135 -99
-120 6 c-66 4 -137 10 -158 13 l-39 6 7 -69 c11 -108 14 -110 208 -117 89 -4
196 -10 237 -13 l75 -6 145 108 145 107 170 -42 c93 -23 177 -41 185 -41 9 0
73 52 143 116 l127 115 491 166 492 166 181 -27 c99 -15 189 -30 199 -32 15
-5 10 10 -22 74 -33 66 -45 81 -68 86 -48 10 -485 76 -497 75 -6 0 -229 -74
-496 -163z"/>
<path d="M8228 11174 c-16 -8 -28 -17 -28 -20 0 -2 22 -49 49 -103 58 -116 72
-124 141 -84 25 14 47 27 49 29 5 4 -169 194 -178 194 -3 -1 -18 -8 -33 -16z"/>
<path d="M8677 10845 l-28 -21 83 -92 c51 -58 90 -92 102 -92 11 0 32 12 47
26 l27 26 253 -169 c140 -93 260 -173 267 -177 8 -5 12 -1 12 12 0 14 -100 85
-368 264 l-368 245 -27 -22z"/>
<path d="M8095 10199 c-286 -15 -539 -28 -562 -28 l-43 -1 0 -1257 0 -1256
113 6 c61 3 318 16 570 28 l457 23 0 258 0 258 -31 0 c-37 0 -400 -18 -481
-24 l-58 -4 0 238 0 238 118 6 c64 3 156 9 205 12 l87 6 0 260 0 260 -37 -6
c-21 -3 -113 -8 -205 -12 l-168 -6 0 239 0 240 285 13 285 13 0 264 c0 144 -3
262 -7 262 -5 -1 -242 -14 -528 -30z"/>
<path d="M6599 10125 c-299 -17 -384 -39 -483 -126 -57 -50 -101 -141 -116
-235 -7 -46 -10 -357 -8 -949 3 -878 3 -880 25 -945 54 -158 142 -233 303
-259 84 -14 600 12 685 34 166 44 272 159 310 342 11 51 15 147 15 386 l0 319
-62 -6 c-35 -3 -119 -8 -188 -11 -69 -3 -167 -8 -217 -11 l-93 -6 0 -258 0
-257 -52 -7 c-29 -3 -77 -6 -105 -6 l-53 0 0 734 0 733 77 7 c42 3 89 6 105 6
l28 0 0 -205 0 -205 63 1 c34 1 159 6 277 12 l215 12 3 250 c4 350 -16 451
-107 548 -55 59 -101 84 -190 103 -76 16 -124 16 -432 -1z"/>
<path d="M5525 10070 c-60 -4 -125 -8 -142 -9 l-33 -1 0 -532 c0 -547 10 -880
35 -1213 14 -186 14 -239 0 -153 -43 269 -183 910 -295 1354 -72 285 -133 520
-135 522 -2 2 -135 -4 -297 -12 -161 -9 -308 -16 -326 -16 l-32 0 0 -1256 0
-1257 158 7 c86 3 192 9 235 12 l77 7 0 411 c0 226 -5 530 -10 676 -5 146 -11
333 -14 415 l-6 150 45 -260 c73 -426 120 -641 220 -1015 53 -195 98 -356 100
-359 3 -2 154 3 337 13 183 9 343 16 356 16 l22 0 0 1255 0 1255 -92 -2 c-51
-1 -142 -5 -203 -8z"/>
<path d="M9647 10021 c3 -11 13 -27 22 -35 9 -8 219 -151 466 -316 333 -222
451 -296 453 -285 2 9 2 18 0 19 -1 2 -215 146 -475 320 -309 207 -469 309
-466 297z"/>
<path d="M3411 9964 c-244 -13 -446 -26 -449 -28 -6 -7 -262 -2509 -257 -2515
3 -2 130 2 284 9 l279 13 5 36 c3 20 11 116 18 213 7 98 16 182 19 188 4 7 65
13 147 17 l139 6 18 -219 c9 -120 18 -219 19 -220 4 -3 562 27 565 31 2 2 -50
556 -117 1232 -67 675 -121 1236 -121 1246 0 21 27 22 -549 -9z m69 -531 c1
-5 18 -235 39 -513 21 -278 38 -506 37 -507 -1 -2 -48 -6 -104 -9 l-102 -7 0
24 c-1 36 71 992 76 1007 4 13 54 17 54 5z"/>
<path d="M1760 9880 c-278 -15 -506 -28 -507 -29 -2 0 -3 -566 -3 -1256 l0
-1256 73 6 c78 6 438 25 475 25 l22 0 0 359 0 359 31 7 c17 4 33 4 37 0 4 -3
48 -165 98 -358 l91 -352 49 2 c27 2 153 8 279 14 127 6 232 13 234 15 3 2
-42 176 -98 386 l-102 382 46 39 c55 47 91 115 111 206 20 96 20 1136 0 1232
-16 73 -53 154 -83 181 -35 32 -109 58 -179 62 -38 2 -296 -8 -574 -24z m300
-885 l0 -375 -67 0 c-38 0 -92 -3 -120 -6 l-53 -7 0 376 0 376 43 4 c23 2 77
4 120 5 l77 2 0 -375z"/>
<path d="M555 9819 c-286 -15 -528 -28 -537 -28 -17 -1 -18 -82 -18 -1561 l0
-1560 33 0 c17 0 146 5 285 12 l252 12 0 757 0 757 58 6 c31 3 123 8 205 12
l147 6 0 260 0 260 -107 -6 c-60 -3 -152 -9 -205 -12 l-98 -6 0 286 0 286 23
0 c51 0 475 21 515 26 l42 5 0 260 0 259 -37 -1 c-21 -1 -272 -14 -558 -30z"/>
<path d="M11975 7663 c-258 -13 -476 -26 -482 -28 -10 -3 -13 -263 -13 -1255
l0 -1250 53 0 c78 0 1070 50 1085 55 9 3 12 64 12 260 l0 255 -24 0 c-27 0
-338 -17 -468 -25 l-88 -6 0 239 0 240 158 6 c86 4 178 9 205 12 l47 6 0 256
0 257 -117 -7 c-65 -3 -157 -7 -205 -7 l-88 -1 0 235 0 235 23 4 c12 3 139 10
282 16 143 7 263 14 268 17 4 2 7 119 7 259 l0 254 -92 -1 c-51 -1 -304 -12
-563 -26z"/>
<path d="M10617 7594 c-138 -8 -265 -20 -300 -29 -182 -46 -284 -155 -318
-343 -6 -31 -9 -187 -7 -365 3 -301 4 -314 27 -372 41 -102 106 -155 449 -364
l302 -184 0 -162 0 -162 -31 -7 c-17 -3 -67 -6 -110 -6 l-79 0 0 178 0 177
-217 -12 c-120 -6 -246 -12 -280 -12 l-63 -1 0 -227 c0 -254 10 -324 58 -419
34 -68 114 -147 175 -174 90 -39 144 -42 449 -26 364 20 421 36 525 149 53 57
79 109 104 204 17 67 19 112 19 389 0 194 -4 333 -11 366 -17 78 -52 139 -107
189 -27 24 -185 122 -351 218 l-301 174 0 149 0 148 49 0 c26 0 76 3 110 6
l61 7 0 -168 0 -167 78 6 c42 3 136 8 207 11 72 3 160 8 198 11 l67 6 0 222
c0 243 -11 319 -55 409 -36 71 -86 120 -155 151 -54 24 -171 47 -230 44 -14 0
-132 -7 -263 -14z"/>
<path d="M9465 7536 l-200 -11 -3 -1257 -2 -1257 67 5 c111 7 434 24 470 24
l33 0 0 1255 0 1255 -82 -2 c-46 0 -173 -6 -283 -12z"/>
<path d="M8700 7498 c-206 -11 -376 -21 -377 -21 0 -1 -55 -406 -120 -899 -66
-494 -123 -901 -126 -905 -4 -3 -9 -4 -11 -2 -2 2 -64 399 -137 882 -73 483
-136 882 -139 888 -6 9 -596 -13 -707 -27 l-43 -5 0 -1256 0 -1255 73 6 c39 3
140 8 222 11 83 4 161 8 174 11 l24 5 -5 772 c-4 675 -3 758 9 657 15 -128
221 -1411 228 -1418 6 -6 616 26 623 32 6 7 177 1217 197 1400 9 77 17 141 18
142 1 1 0 -344 -1 -768 l-4 -771 84 6 c45 4 154 10 241 13 l157 7 0 1258 c0
693 -1 1258 -2 1258 -2 -1 -172 -11 -378 -21z"/>
<path d="M6495 7386 l-200 -11 -3 -996 -2 -996 -92 -7 c-50 -3 -104 -6 -120
-6 l-28 0 0 995 0 995 -27 0 c-58 0 -499 -22 -521 -26 l-23 -5 4 -1062 c3
-1151 0 -1095 57 -1211 53 -110 163 -188 290 -205 83 -11 593 14 676 33 138
32 232 103 289 219 66 135 65 100 65 1255 l0 1042 -82 -2 c-46 0 -173 -6 -283
-12z"/>
<path d="M4500 7285 c-146 -9 -229 -18 -260 -29 -156 -57 -267 -194 -306 -375
-21 -100 -20 -1698 1 -1789 46 -196 176 -310 364 -320 123 -7 575 17 650 34
134 30 235 106 290 219 62 125 61 108 61 1031 0 799 -1 845 -19 917 -26 99
-53 152 -110 210 -113 119 -190 130 -671 102z m240 -1245 c0 -576 -3 -731 -12
-735 -7 -2 -66 -6 -130 -10 l-118 -6 0 735 0 735 33 4 c17 2 76 5 130 5 l97 2
0 -730z"/>
<path d="M2975 7209 c-171 -10 -262 -27 -335 -64 -109 -55 -168 -133 -201
-265 -19 -73 -20 -105 -17 -397 3 -306 4 -320 27 -378 40 -102 104 -155 449
-365 l302 -184 0 -163 c0 -122 -3 -165 -12 -168 -7 -2 -57 -5 -111 -7 l-97 -3
0 178 0 177 -27 0 c-16 0 -142 -5 -280 -12 l-253 -12 0 -225 c0 -254 10 -322
60 -420 54 -108 127 -165 253 -197 55 -15 91 -15 317 -5 140 7 286 16 324 22
96 13 181 57 243 122 62 65 88 115 114 214 17 67 19 112 19 388 0 194 -4 333
-11 369 -15 72 -61 149 -119 197 -25 20 -179 114 -342 209 l-298 172 0 149 0
149 73 0 c39 0 89 3 110 6 l37 7 0 -168 0 -168 103 7 c56 3 165 8 242 11 77 3
155 8 173 11 l32 5 0 222 c0 252 -11 323 -61 418 -39 73 -93 121 -168 151 -49
19 -77 22 -226 24 -93 1 -237 -2 -320 -7z"/>
<path d="M2020 7160 c-63 -4 -139 -8 -167 -9 l-53 -1 0 -678 c0 -643 4 -776
35 -1207 l5 -70 -20 100 c-11 55 -50 249 -86 430 -39 196 -120 548 -200 865
-74 294 -136 535 -137 536 -1 1 -148 -5 -327 -14 l-325 -17 -3 -1249 c-1 -688
1 -1253 5 -1256 6 -5 446 14 461 19 1 1 2 196 2 434 0 382 -5 602 -25 1097
l-5 135 54 -315 c30 -173 70 -389 89 -480 37 -172 213 -841 225 -851 4 -3 153
2 332 12 179 10 337 18 353 18 l27 1 0 1255 0 1255 -62 -2 c-35 -1 -115 -5
-178 -8z"/>
<path d="M295 6514 c-121 -6 -237 -12 -257 -13 l-38 -1 0 -975 0 -975 33 0
c17 0 146 5 285 12 l252 12 0 978 0 978 -27 -1 c-16 -1 -127 -8 -248 -15z"/>
<path d="M11480 4903 c-509 -30 -926 -56 -927 -57 -5 -5 -584 -2549 -581
-2555 2 -4 213 6 469 20 l466 28 57 59 c82 87 153 117 271 117 80 0 95 -3 137
-27 97 -58 148 -172 148 -334 0 -169 -42 -313 -124 -429 -86 -120 -190 -178
-321 -179 -70 -1 -88 3 -140 29 -103 51 -155 163 -140 296 l7 59 -44 -5 c-23
-3 -214 -14 -423 -25 -209 -11 -398 -23 -421 -26 l-41 -5 -12 -122 c-14 -151
-14 -246 0 -362 69 -566 501 -891 1111 -837 73 7 166 19 207 28 458 97 849
422 1072 889 129 270 196 563 206 896 9 293 -22 471 -117 665 -144 297 -375
444 -695 446 -212 0 -382 -46 -505 -139 -107 -80 -107 -81 -25 260 40 164 74
299 76 301 2 2 254 18 559 35 305 17 580 34 610 37 l56 5 58 472 c32 260 60
482 63 495 5 21 3 22 -63 21 -38 -1 -485 -26 -994 -56z"/>
<path d="M8635 4814 c-203 -31 -347 -74 -498 -151 -144 -74 -250 -153 -377
-282 -222 -227 -373 -500 -461 -835 -40 -155 -47 -205 -150 -1071 -80 -672
-92 -791 -92 -935 -1 -383 94 -658 302 -874 129 -133 275 -215 464 -258 121
-28 386 -30 524 -5 196 36 403 120 559 229 97 66 247 208 330 312 183 228 317
524 379 841 14 72 66 470 117 885 78 645 92 784 96 951 3 154 0 221 -13 305
-71 453 -334 766 -727 865 -64 16 -122 22 -253 24 -93 2 -183 1 -200 -1z m111
-1074 c93 -40 159 -139 177 -265 10 -68 3 -133 -82 -837 -71 -584 -98 -781
-117 -838 -45 -142 -148 -264 -274 -324 -60 -29 -73 -31 -170 -31 -98 0 -109
2 -158 29 -60 34 -102 81 -134 153 -43 94 -38 168 57 933 47 382 90 722 96
754 31 176 145 338 288 411 89 45 232 52 317 15z"/>
<path d="M4095 4549 c-321 -43 -599 -177 -820 -393 -210 -206 -343 -450 -409
-746 -24 -113 -53 -316 -45 -324 2 -2 209 8 459 22 l455 27 17 88 c23 115 46
166 108 231 60 64 129 97 216 104 103 8 181 -34 226 -122 26 -50 35 -174 19
-261 -36 -191 -183 -340 -361 -365 -36 -5 -164 -14 -285 -20 -121 -7 -222 -14
-224 -16 -8 -7 -112 -886 -106 -892 3 -3 132 2 288 11 198 11 295 13 325 6
101 -22 167 -80 199 -174 27 -75 24 -221 -6 -308 -26 -76 -89 -168 -144 -210
-127 -96 -308 -114 -420 -41 -89 58 -124 153 -109 294 l8 82 -80 -6 c-45 -3
-252 -15 -461 -27 -209 -12 -381 -22 -381 -23 -1 0 -10 -86 -20 -190 -15 -161
-16 -206 -6 -306 66 -663 627 -995 1401 -828 431 92 798 372 995 757 190 371
224 825 86 1145 -57 133 -169 257 -287 318 -54 28 -63 37 -63 60 0 22 8 32 43
49 123 63 270 200 360 336 228 344 293 848 153 1193 -42 105 -88 172 -186 270
-132 132 -263 203 -450 245 -89 20 -389 28 -495 14z"/>
<path d="M1476 4399 c-443 -47 -814 -276 -1087 -672 -200 -289 -322 -663 -360
-1092 -47 -546 124 -997 436 -1150 115 -57 181 -70 340 -69 107 1 158 6 217
22 68 19 98 32 211 94 18 10 33 14 35 9 2 -5 -225 -352 -504 -770 -279 -419
-505 -762 -503 -764 2 -2 222 9 489 25 342 20 488 32 496 41 24 26 939 1514
999 1625 203 373 359 840 417 1247 19 137 16 449 -6 570 -57 316 -202 563
-422 721 -189 135 -463 194 -758 163z m104 -1027 c66 -33 120 -100 147 -181
13 -42 18 -85 17 -171 -1 -189 -53 -334 -163 -452 -135 -146 -352 -181 -487
-80 -132 101 -169 336 -88 563 100 281 363 428 574 321z"/>
<path d="M6115 2620 c-346 -21 -646 -40 -665 -41 l-34 -4 -62 -510 c-34 -280
-61 -511 -60 -511 3 -4 1446 82 1450 86 2 3 30 216 61 475 31 259 59 487 62
508 l6 37 -64 -1 c-35 -1 -347 -19 -694 -39z"/>
</g>
</svg>
